<svg height="2050" viewBox="0 0 2050 2050" width="2050" xmlns="http://www.w3.org/2000/svg" xmlns:xlink="http://www.w3.org/1999/xlink"><clipPath id="a"><path d="m0 0h2050v2050h-2050z"/></clipPath><g clip-path="url(#a)"><path d="m0 0h2050v2050h-2050z" fill="none"/><path d="m1140.3 554h-230.6c-22.315.018-42.342-13.691-50.4-34.5-2.383 6.19-3.604 12.767-3.6 19.4 0 14.313 5.693 28.038 15.822 38.149 10.13 10.111 23.866 15.778 38.178 15.751h230.6c14.31.027 28.05-5.64 38.18-15.751 10.13-10.112 15.82-23.836 15.82-38.149.01-6.624-1.21-13.201-3.6-19.391-8.05 20.809-28.08 34.518-50.4 34.5zm-218.4 44.3h206.2v44.53h-206.2zm557.5 930.9h-908.8c-49.6 0-86.4-32.9-98.7-73.6-19.1 62.3 26.1 132.8 98.7 132.8h908.8c72.6 0 117.8-70.5 98.7-132.8-12.3 40.7-49.1 73.6-98.7 73.6z" fill="#e0e1e2"/><g fill-rule="evenodd"><path d="m1140.3 607.8h-230.6c-25.26.962-49.024-11.965-61.939-33.695-12.916-21.729-12.916-48.781 0-70.511 12.915-21.729 36.679-34.656 61.939-33.694h230.6c25.26-.962 49.02 11.965 61.94 33.694 12.92 21.73 12.92 48.782 0 70.512-12.92 21.729-36.68 34.656-61.94 33.694zm-230.6-107.9c-14.386-.729-28.003 6.531-35.415 18.883-7.412 12.351-7.412 27.783 0 40.134 7.412 12.352 21.029 19.612 35.415 18.883h230.6c14.39.729 28-6.531 35.42-18.883 7.41-12.351 7.41-27.783 0-40.134-7.42-12.352-21.03-19.612-35.42-18.883z" fill="#30016e"/><path d="m1479.4 1594.5h-908.8c-46.2 0-87.1-25.9-106.7-67.7-19.729-41.32-13.472-90.36 16-125.4l373.3-450c34.66-41.923 53.647-94.604 53.7-149v-209.6c0-8.284 6.716-15 15-15h206.2c8.28 0 15 6.716 15 15v209.6c.06 54.409 19.05 107.089 53.71 149.01l373.3 450c29.47 35.04 35.73 84.08 16 125.4-19.6 41.8-60.5 67.7-106.7 67.7zm-542.5-986.7v194.6c0 61.367-21.465 120.833-60.68 168.076l-373.3 450.004c-11.142 13.19-18.073 29.42-19.9 46.6-3.329 32.74 11.667 64.66 39 83 14.396 9.55 31.324 14.56 48.6 14.4h908.8c17.28.16 34.2-4.85 48.6-14.4 27.33-18.34 42.33-50.26 39-83-1.83-17.18-8.76-33.41-19.9-46.6l-373.3-450.004c-39.22-47.238-60.69-106.702-60.7-168.1v-194.6z" fill="#30016e"/><path d="m1252.8 1502.4c-2.24.3-4.44-.73-5.65-2.63s-1.21-4.34 0-6.24 3.41-2.93 5.65-2.63h70.1c3.2.01 5.79 2.6 5.79 5.8s-2.59 5.79-5.79 5.8zm-70.2 0h-70.3c-2.24.28-4.43-.77-5.63-2.68-1.19-1.91-1.17-4.34.06-6.24 1.23-1.89 3.44-2.89 5.67-2.58h70.2c1.52-.03 2.99.56 4.06 1.64 1.08 1.07 1.67 2.54 1.64 4.06.03 1.53-.56 3-1.63 4.1-1.08 1.09-2.54 1.7-4.07 1.7zm210.5-.2c-1.53.03-3-.56-4.1-1.63-1.09-1.08-1.7-2.54-1.7-4.07 0-1.54.61-3.01 1.7-4.1s2.56-1.7 4.1-1.7h29.5c11.56-.06 21.87-7.27 25.9-18.1.52-2.18 2.25-3.86 4.44-4.32 2.19-.47 4.45.37 5.81 2.15s1.57 4.18.55 6.17c-5.63 15.4-20.3 25.63-36.7 25.6zm-351 0h-70.2c-2.884-.38-5.04-2.84-5.04-5.75s2.156-5.37 5.04-5.75h70.3c3.16.05 5.7 2.64 5.7 5.8 0 1.53-.61 3-1.71 4.07-1.09 1.07-2.56 1.66-4.09 1.63zm-140.4-.2h-70.2c-2.075 0-3.994-1.1-5.033-2.9-1.039-1.79-1.039-4.01 0-5.8 1.039-1.8 2.958-2.9 5.033-2.9l70.2.2c2.235-.3 4.439.73 5.651 2.63s1.212 4.34 0 6.24-3.416 2.93-5.651 2.63zm-140.4-.3-70.2-.2c-2.235.3-4.439-.73-5.651-2.63s-1.212-4.34 0-6.24 3.416-2.93 5.651-2.63l70.2.2c2.235-.3 4.439.73 5.651 2.63s1.212 4.34 0 6.24-3.416 2.93-5.651 2.63zm-140.4-1.1h-1.2c-18.02-4.03-30.823-20.03-30.8-38.5-.019-9.12 3.206-17.94 9.099-24.9l1-1.3c.992-1.18 2.415-1.92 3.954-2.06 1.54-.13 3.068.36 4.246 1.36 1.179.98 1.917 2.38 2.048 3.9.132 1.53-.354 3.04-1.348 4.2l-1 1.3c-4.171 4.88-6.474 11.08-6.5 17.5 0 13.02 9.005 24.31 21.698 27.2 2.765.73 4.584 3.37 4.284 6.21-.299 2.85-2.628 5.05-5.484 5.19zm804.9-80.3c-1.71.02-3.34-.75-4.4-2.1l-44.8-54c-2.04-2.43-1.73-6.06.7-8.1s6.06-1.73 8.1.7l44.8 54c1 1.18 1.49 2.71 1.36 4.25-.14 1.54-.88 2.96-2.06 3.95-1.04.85-2.35 1.31-3.7 1.3zm-777.5-29c-1.358-.03-2.664-.52-3.7-1.4-1.193-.96-1.95-2.36-2.101-3.88-.15-1.53.319-3.05 1.301-4.22l44.8-54c2.104-2.21 5.564-2.42 7.913-.46 2.348 1.95 2.78 5.39.987 7.86l-44.8 54c-1.069 1.34-2.689 2.11-4.4 2.1zm687.9-79c-1.71.02-3.34-.75-4.4-2.1l-44.8-54c-2.04-2.43-1.73-6.06.7-8.1s6.06-1.73 8.1.7l44.8 54c1 1.18 1.49 2.71 1.36 4.25-.14 1.54-.88 2.96-2.06 3.95-1.04.85-2.35 1.31-3.7 1.3zm-598.3-29c-1.358-.03-2.664-.52-3.7-1.4-1.193-.96-1.95-2.36-2.101-3.88-.15-1.53.319-3.05 1.301-4.22l44.8-54c2.104-2.21 5.564-2.42 7.913-.46 2.348 1.95 2.78 5.39.987 7.86l-44.8 54c-1.069 1.34-2.689 2.11-4.4 2.1zm508.7-79c-1.71.01-3.33-.76-4.4-2.1l-35.5-42.8c-2.58-3.11-5.83-5.6-9.5-7.3-2.9-1.38-4.13-4.85-2.75-7.75s4.85-4.13 7.75-2.75c5.14 2.45 9.69 6 13.3 10.4l35.6 42.8c2 2.5 1.65 6.14-.8 8.2-1.04.85-2.35 1.31-3.7 1.3zm-419.1-29c-1.358-.03-2.664-.52-3.7-1.4-1.193-.96-1.95-2.36-2.101-3.88-.15-1.53.319-3.05 1.301-4.22l11.5-13.8c7.433-9 18.525-14.18 30.2-14.1h22.8c1.529-.03 3.005.56 4.095 1.63 1.091 1.08 1.705 2.54 1.705 4.07 0 3.2-2.597 5.8-5.8 5.8h-22.8c-8.271-.04-16.125 3.63-21.4 10l-11.4 13.8c-1.069 1.34-2.69 2.11-4.4 2.1z" fill="#6a00f4"/></g><path d="m1121.7 1225.9h-193.4c-22.533 0-40.8-18.27-40.8-40.8v38.8c-.011 22.51 18.247 40.79 40.78 40.8h193.4c22.53 0 40.8-18.27 40.8-40.8v-38.8c.01 22.51-18.25 40.79-40.78 40.8z" fill="#e0e1e2"/><path d="m1121.7 1279.7h-193.4c-30.795-.06-55.745-25.01-55.8-55.8v-156.1c.053-30.79 25.002-55.74 55.797-55.8h193.403c30.79.05 55.74 25.01 55.8 55.8v156.1c-.06 30.8-25.01 55.75-55.8 55.8zm-193.4-237.7c-14.226.05-25.745 11.57-25.8 25.8v156.1c.054 14.23 11.573 25.74 25.799 25.8h193.401c14.23-.05 25.74-11.57 25.8-25.8v-156.1c-.06-14.23-11.57-25.75-25.8-25.8z" fill="#6a00f4" fill-rule="evenodd"/><path d="m1044.9 1125.9v-39.9h-39.8v39.9h-39.9v39.9h39.9v39.9h39.8v-39.9h39.9v-39.9z" fill="#6a00f4"/></g></svg>