<?xml version="1.0" encoding="utf-8"?>
<svg width="2050px" height="2050px" viewBox="0 0 2050 2050" version="1.1" xmlns:xlink="http://www.w3.org/1999/xlink" xmlns="http://www.w3.org/2000/svg">
  <defs>
    <path d="M0 0L2050 0L2050 2050L0 2050L0 0Z" id="path_1" />
    <clipPath id="clip_1">
      <use xlink:href="#path_1" />
    </clipPath>
  </defs>
  <g id="injection" clip-path="url(#clip_1)">
    <path d="M0 0L2050 0L2050 2050L0 2050L0 0Z" id="injection" fill="none" fill-rule="evenodd" stroke="none" />
    <path d="M684.5 1473C680.523 1473 676.71 1471.41 673.9 1468.6L581.4 1376.1C578.566 1373.3 576.971 1369.48 576.971 1365.5C576.971 1361.52 578.566 1357.7 581.4 1354.9L633.6 1302.7C639.479 1296.91 648.921 1296.91 654.8 1302.7L747.3 1395.2C753.095 1401.08 753.095 1410.52 747.3 1416.4L695.1 1468.6C692.29 1471.41 688.477 1473 684.5 1473L684.5 1473Z" id="Shape" fill="#6A00F4" stroke="none" />
    <path d="M1246.18 900.916L1313.78 833.317L1383.18 902.712L1315.58 970.312L1246.18 900.916Z" id="Rectangle" fill="#E0E1E2" fill-rule="evenodd" stroke="none" />
    <path d="M1269.34 788.813L1443.71 614.441L1485.24 655.969L1310.87 830.341L1269.34 788.813Z" id="Rectangle" fill="#E0E1E2" fill-rule="evenodd" stroke="none" />
    <path d="M734.448 1403.63L1241.73 896.35L1285.75 940.375L778.472 1447.65L734.448 1403.63Z" id="Rectangle" fill="#E0E1E2" fill-rule="evenodd" stroke="none" />
    <path d="M1078.89 795.054L1109.65 764.294L1285.76 940.406L1255 971.166L1078.89 795.054Z" id="Rectangle" fill="#E0E1E2" fill-rule="evenodd" stroke="none" />
    <path d="M778.5 1462.6C774.514 1462.64 770.685 1461.05 767.9 1458.2L591.8 1282.1C588.966 1279.3 587.371 1275.48 587.371 1271.5C587.371 1267.52 588.966 1263.7 591.8 1260.9L1099 753.6C1104.88 747.805 1114.32 747.805 1120.2 753.6L1296.4 929.8C1299.19 932.62 1300.73 936.435 1300.7 940.4C1300.71 944.361 1299.17 948.168 1296.4 951L789.1 1458.2C786.309 1461.04 782.484 1462.63 778.5 1462.6L778.5 1462.6ZM623.6 1271.5L778.5 1426.4L1264.5 940.4L1109.6 785.5L623.6 1271.5Z" id="Shape" fill="#30016E" fill-rule="evenodd" stroke="none" />
    <path d="M442.161 1586.61L627.635 1401.14L648.848 1422.35L463.374 1607.82L442.161 1586.61Z" id="Rectangle" fill="#6A00F4" fill-rule="evenodd" stroke="none" />
    <path d="M1310.9 845.3C1306.92 845.33 1303.09 843.742 1300.3 840.9L1209.1 749.7C1203.25 743.844 1203.25 734.356 1209.1 728.5L1383.4 554.1C1389.29 548.239 1398.81 548.239 1404.7 554.1L1495.9 645.3C1498.74 648.116 1500.34 651.95 1500.34 655.95C1500.34 659.95 1498.74 663.783 1495.9 666.6L1321.5 840.9C1318.71 843.742 1314.88 845.33 1310.9 845.3L1310.9 845.3ZM1240.9 739.1L1310.9 809.1L1464.1 655.9L1394.1 585.9L1240.9 739.1Z" id="Shape" fill="#30016E" fill-rule="evenodd" stroke="none" />
    <path d="M1554.7 740.4C1550.73 740.386 1546.92 738.805 1544.1 736L1314 505.9C1308.15 500.044 1308.15 490.556 1314 484.7L1356.5 442.2C1359.3 439.366 1363.12 437.771 1367.1 437.771C1371.08 437.771 1374.9 439.366 1377.7 442.2L1607.8 672.3C1610.65 675.085 1612.24 678.914 1612.2 682.9C1612.23 686.884 1610.64 690.709 1607.8 693.5L1565.3 736C1562.5 738.823 1558.68 740.408 1554.7 740.4L1554.7 740.4Z" id="Shape" fill="#6A00F4" stroke="none" />
    <path d="M1004.61 869.331L1025.82 848.118L1068.26 890.551L1047.04 911.765L1004.61 869.331Z" id="Rectangle" fill="#30016E" fill-rule="evenodd" stroke="none" />
    <path d="M925.009 948.903L946.222 927.689L988.656 970.123L967.442 991.336L925.009 948.903Z" id="Rectangle" fill="#30016E" fill-rule="evenodd" stroke="none" />
    <path d="M845.409 1028.47L866.622 1007.26L909.056 1049.69L887.842 1070.91L845.409 1028.47Z" id="Rectangle" fill="#30016E" fill-rule="evenodd" stroke="none" />
    <path d="M765.809 1108.15L787.022 1086.93L829.456 1129.37L808.242 1150.58L765.809 1108.15Z" id="Rectangle" fill="#30016E" fill-rule="evenodd" stroke="none" />
    <path d="M686.209 1187.72L707.422 1166.5L749.856 1208.94L728.642 1230.15L686.209 1187.72Z" id="Rectangle" fill="#30016E" fill-rule="evenodd" stroke="none" />
    <path d="M770 1376.3C768.649 1376.3 767.354 1375.76 766.4 1374.8C764.482 1372.82 764.482 1369.68 766.4 1367.7L808.8 1325.3C810.778 1323.38 813.922 1323.38 815.9 1325.3C816.847 1326.24 817.379 1327.52 817.379 1328.85C817.379 1330.18 816.847 1331.46 815.9 1332.4L773.5 1374.8C772.577 1375.74 771.319 1376.28 770 1376.3L770 1376.3ZM854.8 1291.4C852.8 1291.37 851.009 1290.15 850.247 1288.3C849.485 1286.45 849.899 1284.33 851.3 1282.9L893.7 1240.5C894.639 1239.55 895.917 1239.02 897.25 1239.02C898.583 1239.02 899.861 1239.55 900.8 1240.5C902.706 1242.44 902.706 1245.56 900.8 1247.5L858.3 1290C857.361 1290.91 856.105 1291.41 854.8 1291.4L854.8 1291.4ZM939.7 1206.6C938.349 1206.6 937.054 1206.06 936.1 1205.1C934.182 1203.12 934.182 1199.98 936.1 1198L978.6 1155.6C980.544 1153.69 983.656 1153.69 985.6 1155.6C986.547 1156.54 987.079 1157.82 987.079 1159.15C987.079 1160.48 986.547 1161.76 985.6 1162.7L943.2 1205.1C942.277 1206.04 941.019 1206.58 939.7 1206.6L939.7 1206.6ZM1024.5 1121.7C1023.2 1121.69 1021.95 1121.19 1021 1120.3C1020.05 1119.36 1019.52 1118.08 1019.52 1116.75C1019.52 1115.42 1020.05 1114.14 1021 1113.2L1063.4 1070.8C1064.34 1069.85 1065.62 1069.32 1066.95 1069.32C1068.28 1069.32 1069.56 1069.85 1070.5 1070.8C1072.41 1072.74 1072.41 1075.86 1070.5 1077.8L1028.1 1120.3C1027.11 1121.19 1025.83 1121.69 1024.5 1121.7L1024.5 1121.7ZM1109.4 1036.9C1108.05 1036.9 1106.75 1036.36 1105.8 1035.4C1103.88 1033.42 1103.88 1030.28 1105.8 1028.3L1148.3 985.9C1150.24 983.994 1153.36 983.994 1155.3 985.9C1156.25 986.839 1156.78 988.117 1156.78 989.45C1156.78 990.783 1156.25 992.061 1155.3 993L1112.9 1035.4C1111.98 1036.34 1110.72 1036.88 1109.4 1036.9L1109.4 1036.9ZM1194.2 952C1192.9 951.987 1191.65 951.488 1190.7 950.6C1189.75 949.661 1189.22 948.383 1189.22 947.05C1189.22 945.717 1189.75 944.439 1190.7 943.5L1233.1 901.1C1234.04 900.153 1235.32 899.621 1236.65 899.621C1237.98 899.621 1239.26 900.153 1240.2 901.1C1242.11 903.044 1242.11 906.156 1240.2 908.1L1197.8 950.6C1196.81 951.495 1195.53 951.993 1194.2 952L1194.2 952Z" id="Shape" fill="#6A00F4" fill-rule="evenodd" stroke="none" />
    <path d="M1315.6 985.3C1311.63 985.264 1307.83 983.687 1305 980.9L1069.1 745C1066.3 742.177 1064.72 738.373 1064.7 734.4C1064.7 730.424 1066.29 726.611 1069.1 723.8L1136.7 656.2C1139.5 653.367 1143.32 651.772 1147.3 651.772C1151.28 651.772 1155.1 653.367 1157.9 656.2L1393.8 892.1C1396.65 894.885 1398.24 898.715 1398.2 902.7C1398.23 906.684 1396.64 910.509 1393.8 913.3L1326.2 980.9C1323.4 983.723 1319.58 985.308 1315.6 985.3L1315.6 985.3ZM1101 734.4L1315.6 949L1362 902.7L1147.3 688L1101 734.4Z" id="Shape" fill="#30016E" fill-rule="evenodd" stroke="none" />
  </g>
</svg>