<svg height="2050" viewBox="0 0 2050 2050" width="2050" xmlns="http://www.w3.org/2000/svg" xmlns:xlink="http://www.w3.org/1999/xlink"><clipPath id="a"><path d="m0 0h2050v2050h-2050z"/></clipPath><g clip-path="url(#a)"><path d="m0 0h2050v2050h-2050z" fill="none"/><path d="m684.5 1473c-3.977 0-7.79-1.59-10.6-4.4l-92.5-92.5c-2.834-2.8-4.429-6.62-4.429-10.6s1.595-7.8 4.429-10.6l52.2-52.2c5.879-5.79 15.321-5.79 21.2 0l92.5 92.5c5.795 5.88 5.795 15.32 0 21.2l-52.2 52.2c-2.81 2.81-6.623 4.4-10.6 4.4z" fill="#6a00f4"/><g fill-rule="evenodd"><path d="m1246.18 900.916 67.6-67.599 69.4 69.395-67.6 67.6z" fill="#e0e1e2"/><path d="m1269.34 788.813 174.37-174.372 41.53 41.528-174.37 174.372z" fill="#e0e1e2"/><path d="m734.448 1403.63 507.282-507.28 44.02 44.025-507.278 507.275z" fill="#e0e1e2"/><path d="m1078.89 795.054 30.76-30.76 176.11 176.112-30.76 30.76z" fill="#e0e1e2"/><path d="m778.5 1462.6c-3.986.04-7.815-1.55-10.6-4.4l-176.1-176.1c-2.834-2.8-4.429-6.62-4.429-10.6s1.595-7.8 4.429-10.6l507.2-507.3c5.88-5.795 15.32-5.795 21.2 0l176.2 176.2c2.79 2.82 4.33 6.635 4.3 10.6.01 3.961-1.53 7.768-4.3 10.6l-507.3 507.2c-2.791 2.84-6.616 4.43-10.6 4.4zm-154.9-191.1 154.9 154.9 486-486-154.9-154.9z" fill="#30016e"/><path d="m442.161 1586.61 185.474-185.47 21.213 21.21-185.474 185.47z" fill="#6a00f4"/><path d="m1310.9 845.3c-3.98.03-7.81-1.558-10.6-4.4l-91.2-91.2c-5.85-5.856-5.85-15.344 0-21.2l174.3-174.4c5.89-5.861 15.41-5.861 21.3 0l91.2 91.2c2.84 2.816 4.44 6.65 4.44 10.65s-1.6 7.833-4.44 10.65l-174.4 174.3c-2.79 2.842-6.62 4.43-10.6 4.4zm-70-106.2 70 70 153.2-153.2-70-70z" fill="#30016e"/></g><path d="m1554.7 740.4c-3.97-.014-7.78-1.595-10.6-4.4l-230.1-230.1c-5.85-5.856-5.85-15.344 0-21.2l42.5-42.5c2.8-2.834 6.62-4.429 10.6-4.429s7.8 1.595 10.6 4.429l230.1 230.1c2.85 2.785 4.44 6.614 4.4 10.6.03 3.984-1.56 7.809-4.4 10.6l-42.5 42.5c-2.8 2.823-6.62 4.408-10.6 4.4z" fill="#6a00f4"/><path d="m1004.61 869.331 21.21-21.213 42.44 42.433-21.22 21.214z" fill="#30016e" fill-rule="evenodd"/><path d="m925.009 948.903 21.213-21.214 42.434 42.434-21.214 21.213z" fill="#30016e" fill-rule="evenodd"/><path d="m845.409 1028.47 21.213-21.21 42.434 42.43-21.214 21.22z" fill="#30016e" fill-rule="evenodd"/><path d="m765.809 1108.15 21.213-21.22 42.434 42.44-21.214 21.21z" fill="#30016e" fill-rule="evenodd"/><path d="m686.209 1187.72 21.213-21.22 42.434 42.44-21.214 21.21z" fill="#30016e" fill-rule="evenodd"/><path d="m770 1376.3c-1.351 0-2.646-.54-3.6-1.5-1.918-1.98-1.918-5.12 0-7.1l42.4-42.4c1.978-1.92 5.122-1.92 7.1 0 .947.94 1.479 2.22 1.479 3.55s-.532 2.61-1.479 3.55l-42.4 42.4c-.923.94-2.181 1.48-3.5 1.5zm84.8-84.9c-2-.03-3.791-1.25-4.553-3.1s-.348-3.97 1.053-5.4l42.4-42.4c.939-.95 2.217-1.48 3.55-1.48s2.611.53 3.55 1.48c1.906 1.94 1.906 5.06 0 7l-42.5 42.5c-.939.91-2.195 1.41-3.5 1.4zm84.9-84.8c-1.351 0-2.646-.54-3.6-1.5-1.918-1.98-1.918-5.12 0-7.1l42.5-42.4c1.944-1.91 5.056-1.91 7 0 .947.94 1.479 2.22 1.479 3.55s-.532 2.61-1.479 3.55l-42.4 42.4c-.923.94-2.181 1.48-3.5 1.5zm84.8-84.9c-1.3-.01-2.55-.51-3.5-1.4-.95-.94-1.48-2.22-1.48-3.55s.53-2.61 1.48-3.55l42.4-42.4c.94-.95 2.22-1.48 3.55-1.48s2.61.53 3.55 1.48c1.91 1.94 1.91 5.06 0 7l-42.4 42.5c-.99.89-2.27 1.39-3.6 1.4zm84.9-84.8c-1.35 0-2.65-.54-3.6-1.5-1.92-1.98-1.92-5.12 0-7.1l42.5-42.4c1.94-1.906 5.06-1.906 7 0 .95.939 1.48 2.217 1.48 3.55s-.53 2.611-1.48 3.55l-42.4 42.4c-.92.94-2.18 1.48-3.5 1.5zm84.8-84.9c-1.3-.013-2.55-.512-3.5-1.4-.95-.939-1.48-2.217-1.48-3.55s.53-2.611 1.48-3.55l42.4-42.4c.94-.947 2.22-1.479 3.55-1.479s2.61.532 3.55 1.479c1.91 1.944 1.91 5.056 0 7l-42.4 42.5c-.99.895-2.27 1.393-3.6 1.4z" fill="#6a00f4" fill-rule="evenodd"/><path d="m1315.6 985.3c-3.97-.036-7.77-1.613-10.6-4.4l-235.9-235.9c-2.8-2.823-4.38-6.627-4.4-10.6 0-3.976 1.59-7.789 4.4-10.6l67.6-67.6c2.8-2.833 6.62-4.428 10.6-4.428s7.8 1.595 10.6 4.428l235.9 235.9c2.85 2.785 4.44 6.615 4.4 10.6.03 3.984-1.56 7.809-4.4 10.6l-67.6 67.6c-2.8 2.823-6.62 4.408-10.6 4.4zm-214.6-250.9 214.6 214.6 46.4-46.3-214.7-214.7z" fill="#30016e" fill-rule="evenodd"/></g></svg>