<svg height="2050" viewBox="0 0 2050 2050" width="2050" xmlns="http://www.w3.org/2000/svg" xmlns:xlink="http://www.w3.org/1999/xlink"><clipPath id="a"><path d="m0 0h2050v2050h-2050z"/></clipPath><g clip-path="url(#a)"><path d="m0 0h2050v2050h-2050z" fill="none"/><path d="m863.2 1110h125.1v33.37h-125.1z" fill="#e0e1e2"/><path d="m988.3 1219.7h-125.1c-8.284 0-15-6.72-15-15v-94.7c0-8.28 6.716-15 15-15h125.1c8.284 0 15 6.72 15 15v94.7c0 8.28-6.716 15-15 15zm-110.1-30h95.1v-64.7h-95.1z" fill="#6a00f4" fill-rule="evenodd"/><path d="m868.4 560.6h114.7v30.24h-114.7z" fill="#e0e1e2"/><path d="m983.1 605.8h-114.7c-8.284 0-15-6.716-15-15v-102.4c0-8.284 6.716-15 15-15h114.7c8.284 0 15 6.716 15 15v102.4c0 8.284-6.716 15-15 15zm-99.7-30h84.7v-72.4h-84.7z" fill="#6a00f4" fill-rule="evenodd"/><path d="m828.6 1338.7h216.6v57.1h-216.6z" fill="#e0e1e2"/><path d="m1045.2 1410.8h-216.6c-8.284 0-15-6.72-15-15v-57.1c0-8.28 6.716-15 15-15h216.6c8.28 0 15 6.72 15 15v57.1c0 8.28-6.72 15-15 15zm-201.6-30h186.6v-27.1h-186.6z" fill="#6a00f4" fill-rule="evenodd"/><path d="m1311.6 1394.3c-3.98 0-7.79-1.59-10.6-4.4l-86.3-86.2c-4.22-4.35-5.48-10.78-3.2-16.4 2.31-5.58 7.76-9.21 13.8-9.2h86.3c87.33 1.78 168.79-43.79 212.97-119.14 44.19-75.34 44.19-168.682 0-244.025-44.18-75.343-125.65-120.913-212.97-119.135h-168.5v-30h168.5c147.72 2.839 265.99 123.401 265.99 271.15 0 147.75-118.27 268.31-265.99 271.15h-50l56.1 56.2c180.77-1.74 325.92-149.67 324.24-330.44-1.67-180.775-149.55-325.977-330.32-324.36h-179.1v-30h179.1c127.72-.055 245.76 68.048 309.64 178.645s63.88 246.875.01 357.475c-63.86 110.61-181.9 178.72-309.62 178.68z" fill="#6a00f4"/><path d="m1036.5 842.9c-38.376 1.183-74.354-18.615-93.892-51.666-19.537-33.051-19.537-74.117 0-107.168 19.538-33.051 55.516-52.849 93.892-51.666v-30c-74.6 0-135.3 60.7-135.3 135.3s60.7 135.2 135.3 135.2z" fill="#e0e1e2"/><path d="m868.4 1095.5c-2.982 0-5.4-2.42-5.4-5.4v-68.5c.005-2.98 2.421-5.39 5.4-5.39s5.395 2.41 5.4 5.39v68.5c0 2.98-2.418 5.4-5.4 5.4zm0-137c-2.982 0-5.4-2.418-5.4-5.4v-68.5c.005-2.979 2.421-5.392 5.4-5.392s5.395 2.413 5.4 5.392v68.5c0 2.982-2.418 5.4-5.4 5.4zm0-136.9c-2.982 0-5.4-2.418-5.4-5.4v-68.5c-.003-1.931 1.026-3.717 2.698-4.683 1.672-.967 3.732-.967 5.404 0 1.672.966 2.701 2.752 2.698 4.683v68.5c0 2.982-2.418 5.4-5.4 5.4zm0-137c-2.982 0-5.4-2.418-5.4-5.4v-68.5c-.003-1.931 1.026-3.717 2.698-4.683 1.672-.967 3.732-.967 5.404 0 1.672.966 2.701 2.752 2.698 4.683v68.5c0 2.982-2.418 5.4-5.4 5.4z" fill="#6a00f4" fill-rule="evenodd"/><path d="m988.3 842.9v267.1h48.2v-267.1z" fill="#e0e1e2"/><path d="m1036.5 1125h-221.5c-8.284 0-15-6.72-15-15v-519.2c0-8.284 6.716-15 15-15h221.5c8.28 0 15 6.716 15 15v41.9h-30v-26.9h-191.5v489.2h191.5v-252.1h30v267.1c0 8.28-6.72 15-15 15z" fill="#30016e"/><path d="m1044.6 503.4h-237.7c-8.284 0-15-6.716-15-15v-52.1c0-8.284 6.716-15 15-15h237.7c8.28 0 15 6.716 15 15v52.1c0 8.284-6.72 15-15 15zm-222.7-30h207.7v-22.1h-207.7z" fill="#6a00f4" fill-rule="evenodd"/><path d="m1045.2 1473.1v69.3h418.7l-66.2-69.3z" fill="#e0e1e2"/><path d="m1463.9 1557.4h-418.7c-8.28 0-15-6.72-15-15v-268.9c0-8.28 6.72-15 15-15h161.8c4.1.01 8.01 1.71 10.8 4.7l257 268.8c4.18 4.35 5.35 10.77 2.98 16.32-2.38 5.54-7.85 9.12-13.88 9.08zm-403.7-30h368.6l-228.3-238.9h-140.3z" fill="#30016e" fill-rule="evenodd"/><path d="m642.5 1542.4h821.4v55.45h-821.4z" fill="#e0e1e2"/><path d="m1463.9 1612.8h-821.4c-8.284 0-15-6.72-15-15v-55.4c0-8.28 6.716-15 15-15h821.4c8.28 0 15 6.72 15 15v55.4c0 8.28-6.72 15-15 15zm-806.4-30h791.4v-25.4h-791.4z" fill="#30016e" fill-rule="evenodd"/><path d="m1036.5 806.4c-51.12.009-94.876-36.665-103.8-87-1.012 6.047-1.514 12.169-1.5 18.3 0 37.62 20.07 72.382 52.65 91.192 32.58 18.811 72.72 18.81 105.3 0s52.65-53.572 52.65-91.192c-.02-6.136-.55-12.257-1.6-18.302-8.92 50.298-52.62 86.961-103.7 87z" fill="#e0e1e2"/><path d="m1036.5 857.9c-48.666 0-92.538-29.321-111.152-74.286-18.614-44.966-8.304-96.717 26.123-131.114 34.426-34.398 86.189-44.666 131.139-26.014s74.23 62.548 74.19 111.214c0 66.3-54 120.2-120.3 120.2zm0-210.5c-32.96-1.097-63.896 15.86-80.701 44.235s-16.805 63.655 0 92.03 47.741 45.332 80.701 44.235c49.7 0 90.3-40.5 90.3-90.2-.11-49.826-40.47-90.19-90.3-90.3zm-43.1 90.3c0-23.803 19.3-43.1 43.1-43.1s43.1 19.297 43.1 43.1c0 23.804-19.3 43.1-43.1 43.1s-43.1-19.296-43.1-43.1z" fill="#6a00f4"/></g></svg>