<?xml version="1.0" encoding="utf-8"?>
<svg width="38px" height="40px" viewBox="0 0 38 40" version="1.1" xmlns:xlink="http://www.w3.org/1999/xlink" xmlns="http://www.w3.org/2000/svg">
  <defs>
    <path d="M0 0L38 0L38 40L0 40L0 0Z" id="path_1" />
    <clipPath id="mask_1">
      <use xlink:href="#path_1" />
    </clipPath>
  </defs>
  <g id="password">
    <path d="M0 0L38 0L38 40L0 40L0 0Z" id="Background" fill="#FFFFFF" fill-opacity="0" fill-rule="evenodd" stroke="none" />
    <path d="M23.75 3.01036C20.8107 1.31335 17.1893 1.31335 14.25 3.01036L6.66154 7.39156C3.72223 9.08857 1.91154 12.2248 1.91154 15.6188L1.91154 24.3812C1.91154 27.7752 3.72223 30.9114 6.66154 32.6084L14.25 36.9896C17.1893 38.6867 20.8107 38.6866 23.75 36.9896L31.3385 32.6084C34.2778 30.9114 36.0885 27.7752 36.0885 24.3812L36.0885 15.6188C36.0885 12.2248 34.2778 9.08857 31.3385 7.39156L23.75 3.01036L23.75 3.01036Z" id="Shape" fill="#7553F6" stroke="#B593F7" stroke-width="3" />
    <g id="Group" transform="translate(12.3333 11.0667)" style="mix-blend-mode: overlay;">
      <path d="M2.2667 5.6C2.2667 3.173 4.2397 1.2 6.6667 1.2C9.0937 1.2 11.0667 3.173 11.0667 5.6L2.2667 5.6L2.2667 5.6ZM1.0667 5.6C1.0667 2.5103 3.577 0 6.6667 0C9.7564 0 12.2667 2.5103 12.2667 5.6L12.5 5.6C12.9584 5.6 13.3334 5.975 13.3334 6.4333L13.3334 16.4333C13.3334 16.8916 12.9584 17.2666 12.5 17.2666L0.833401 17.2666C0.375 17.2666 0 16.8916 0 16.4333L0 6.4333C0 5.975 0.375 5.6 0.833401 5.6L1.0667 5.6L1.0667 5.6Z" id="Shape" fill="#000000" fill-rule="evenodd" stroke="none" />
      <path d="M7.2667 8.1L7.2667 7.5L6.0667 7.5L6.0667 8.1L6.0667 9.9848L4.7326 8.6507L4.3083 8.2264L3.4598 9.0749L3.8841 9.4992L5.2182 10.8333L3.3334 10.8333L2.7334 10.8333L2.7334 12.0333L3.3334 12.0333L5.2181 12.0333L3.8841 13.3673L3.4598 13.7916L4.3083 14.6401L4.7326 14.2158L6.0667 12.8817L6.0667 14.7666L6.0667 15.3666L7.2667 15.3666L7.2667 14.7666L7.2667 12.8818L8.6007 14.2158L9.025 14.6401L9.8735 13.7916L9.4492 13.3673L8.1152 12.0333L10 12.0333L10.6 12.0333L10.6 10.8333L10 10.8333L8.1151 10.8333L9.4492 9.4992L9.8735 9.0749L9.025 8.2264L8.6007 8.6507L7.2667 9.9847L7.2667 8.1L7.2667 8.1Z" id="Shape" fill="#FFFFFF" fill-rule="evenodd" stroke="none" />
    </g>
  </g>
</svg>