<svg height="2050" viewBox="0 0 2050 2050" width="2050" xmlns="http://www.w3.org/2000/svg" xmlns:xlink="http://www.w3.org/1999/xlink"><clipPath id="a"><path d="m0 0h2050v2050h-2050z"/></clipPath><path d="m0 0h2050v2050h-2050z" fill="none"/><g clip-path="url(#a)" fill-rule="evenodd"><path d="m984.5 1651.2c-134.774-.06-244-109.33-244-244.1v-27.6c0-8.28 6.716-15 15-15h45c8.284 0 15 6.72 15 15v27.6c0 93.2 75.8 169.1 169 169.1s169.1-75.9 169.1-169.1v-560.9c0-105.9 86.2-192.1 192.1-192.1s192.2 86.2 192.2 192.1v71.7c0 8.284-6.72 15-15 15h-45c-8.28 0-15-6.716-15-15v-71.7c0-64.6-52.6-117.1-117.2-117.1-64.65.055-117.04 52.45-117.1 117.1v560.9c-.05 134.9-109.37 244.15-244.184 244.1zm-214-256.7v12.6c-1.677 77.58 38.749 149.99 105.666 189.27s149.854 39.28 216.764 0c66.92-39.28 107.35-111.69 105.67-189.27v-560.9c0-81.1 66-147.1 147.1-147.1s147.2 66 147.2 147.1v56.7h15v-56.7c0-89.4-72.8-162.1-162.2-162.1s-162.1 72.7-162.1 162.1v560.9c0 109.8-89.3 199.1-199.1 199.1s-199-89.3-199-199.1v-12.6z" fill="#6a00f4"/><path d="m777.7 1266.4-10.4-.2c-2.738-.16-4.858-2.46-4.8-5.2.052-1.33.629-2.58 1.605-3.48.975-.9 2.269-1.37 3.595-1.32l10 .2c16.308-.02 32.578-1.56 48.6-4.6 1.821-.5 3.767.07 5.031 1.48 1.264 1.4 1.631 3.39.947 5.15-.683 1.76-2.299 2.99-4.178 3.17-16.609 3.2-33.485 4.81-50.4 4.8zm-69.4-9.2-1.3-.2c-19.648-5.41-38.632-12.99-56.6-22.6-1.186-.62-2.077-1.68-2.471-2.96-.395-1.28-.261-2.66.371-3.84.614-1.19 1.688-2.08 2.972-2.45 1.285-.38 2.668-.22 3.828.45 17.302 9.31 35.624 16.6 54.6 21.7 2.694.43 4.547 2.94 4.165 5.64s-2.858 4.6-5.565 4.26zm176-13.3c-1.966-.01-3.738-1.19-4.5-3-1.127-2.51-.009-5.46 2.5-6.6 17.945-7.94 34.922-17.9 50.6-29.7 2.223-1.6 5.314-1.16 7 1 .823 1.05 1.181 2.39.992 3.71s-.908 2.51-1.992 3.29c-16.287 12.23-33.898 22.6-52.5 30.9-.665.28-1.38.41-2.1.4zm-280.7-43.1c-1.226 0-2.406-.46-3.3-1.3-15.351-13.45-29.107-28.61-41-45.2-.77-1.07-1.077-2.4-.851-3.7s.965-2.45 2.051-3.2c1.073-.79 2.415-1.11 3.729-.9 1.313.2 2.49.92 3.271 2 11.438 15.95 24.657 30.54 39.4 43.5 2.064 1.84 2.285 4.99.5 7.1-.975 1.07-2.352 1.69-3.8 1.7zm375.8-28.3c-1.932-.02-3.682-1.14-4.495-2.9-.812-1.75-.542-3.82.695-5.3 12.646-15.02 23.549-31.42 32.5-48.9.72-1.73 2.35-2.91 4.22-3.06 1.86-.15 3.66.76 4.65 2.35.98 1.59 1 3.6.03 5.21-9.27 18.16-20.573 35.2-33.7 50.8-.963 1.16-2.395 1.82-3.9 1.8zm-445.2-68.3c-2.01-.04-3.812-1.25-4.6-3.1-7.82-18.84-13.489-38.49-16.9-58.6-.23-1.3.075-2.64.847-3.72.772-1.07 1.945-1.78 3.253-1.98 1.306-.26 2.661.03 3.741.81 1.081.78 1.79 1.97 1.959 3.29 3.318 19.35 8.785 38.27 16.3 56.4.526 1.22.535 2.6.026 3.82-.508 1.23-1.492 2.19-2.726 2.68-.592.28-1.244.42-1.9.4zm499.4-37.6-1.2-.2c-2.67-.64-4.33-3.32-3.7-6 4.76-19.05 7.34-38.57 7.7-58.2 0-1.34.54-2.632 1.5-3.572s2.26-1.455 3.6-1.428c2.72.157 4.85 2.38 4.9 5.1-.36 20.4-3.01 40.69-7.9 60.5-.59 2.23-2.6 3.79-4.9 3.8zm-519.6-79.7c-2.761 0-5-2.239-5-5v-60c0-2.761 2.239-5 5-5s5 2.239 5 5v60c0 2.761-2.239 5-5 5zm527.4-39.7c-2.76 0-5-2.239-5-5v-60c0-1.786.95-3.437 2.5-4.33s3.45-.893 5 0 2.5 2.544 2.5 4.33v60c0 2.761-2.24 5-5 5z" fill="#6a00f4"/><path d="m537.2 897.2h-45c-8.284 0-15-6.716-15-15v-288.7c.109-59.416 48.278-107.543 107.697-107.6 3.979-.001 7.795 1.579 10.609 4.392 2.813 2.813 4.394 6.629 4.394 10.608v45c0 8.284-6.716 15-15 15-18.021 0-32.645 14.579-32.7 32.6v288.7c0 8.284-6.716 15-15 15zm-30-30h15v-273.7c.109-28.797 19.758-53.842 47.701-60.8l-.001-15.3c-36.359 7.193-62.595 39.037-62.7 76.1z" fill="#30016e"/><path d="m1063.7 897.2h-45c-8.28 0-15-6.716-15-15v-288.7c0-18.004-14.596-32.6-32.6-32.6-8.284 0-15-6.716-15-15v-45c0-8.284 6.716-15 15-15 59.4.055 107.54 48.197 107.6 107.6v288.7c0 8.284-6.72 15-15 15zm-30-30h15v-273.7c-.06-37.048-26.26-68.901-62.601-76.1l.001 15.3c27.92 6.966 47.54 32.021 47.6 60.8z" fill="#30016e"/><path d="m835.3 1394.5h-114.6c-8.284 0-15-6.72-15-15v-75c-144.829-33.71-247.312-162.8-247.3-311.5v-110.8c0-8.284 6.716-15 15-15h80c8.262.055 14.946 6.738 15 15v110.8c0 115.76 93.841 209.6 209.6 209.6 115.758 0 209.599-93.84 209.6-209.599v-110.801c.055-8.262 6.738-14.945 15-15h80c8.28 0 15 6.716 15 15v110.8c0 148.73-102.494 277.81-247.326 311.51l.026 74.99c0 8.28-6.716 15-15 15zm-99.6-30h84.6v-72.2c-.023-7.21 5.114-13.39 12.2-14.7 136.445-26.27 235.06-145.65 235.1-284.6v-95.8h-50v95.8c0 85.6-45.668 164.7-119.8 207.5s-165.467 42.8-239.6 0c-74.132-42.8-119.8-121.9-119.8-207.5v-95.8h-50v95.8c.068 139.02 98.716 258.38 235.167 284.61 7.055 1.34 12.155 7.51 12.133 14.69z" fill="#30016e"/><path d="m1579 940.1c36.12 51.637 29.97 121.75-14.59 166.31s-114.67 50.71-166.31 14.59c29.73 42.5 81.89 63.24 132.69 52.76s90.49-50.17 100.97-100.97-10.26-102.96-52.76-132.69z" fill="#e0e1e2"/><path d="m1504.6 1191.5c-79.8 0-144.8-65-144.8-144.9s65-144.9 144.8-144.9 144.9 65 144.9 144.9-65 144.9-144.9 144.9zm0-259.8c-63.3 0-114.8 51.6-114.8 114.9s51.5 114.9 114.8 114.9c41.06.02 79.01-21.88 99.55-57.43 20.53-35.56 20.53-79.37 0-114.928s-58.48-57.456-99.54-57.442z" fill="#30016e"/><g fill="#6a00f4"><path d="m1526.8 1024.5v-44.3h-44.3v44.3h-44.3v44.3h44.3v44.2h44.3v-44.2h44.3v-44.3z"/><path d="m627.5 617.8c-31.812 0-57.6-25.788-57.6-57.6v-73.6c1.288-30.906 26.717-55.298 57.65-55.298s56.362 24.392 57.65 55.298v73.6c-.056 31.829-25.874 57.601-57.702 57.6zm0-158.8c-15.22.055-27.545 12.38-27.6 27.6v73.6c.88 14.626 12.998 26.036 27.65 26.036s26.77-11.41 27.65-26.036v-73.6c-.055-15.26-12.441-27.6-27.7-27.6z"/><path d="m928.5 617.8c-31.828 0-57.645-25.772-57.7-57.6v-73.6c1.287-30.906 26.717-55.298 57.65-55.298s56.362 24.392 57.65 55.298v73.6c0 31.812-25.788 57.6-57.6 57.6zm0-158.8c-15.259 0-27.645 12.341-27.7 27.6v73.6c.88 14.626 12.998 26.036 27.65 26.036s26.77-11.41 27.65-26.036v-73.6c-.055-15.221-12.38-27.545-27.6-27.6z"/></g></g></svg>