<svg height="2050" viewBox="0 0 2050 2050" width="2050" xmlns="http://www.w3.org/2000/svg" xmlns:xlink="http://www.w3.org/1999/xlink"><clipPath id="a"><path d="m0 0h2050v2050h-2050z"/></clipPath><g clip-path="url(#a)"><path d="m0 0h2050v2050h-2050z" fill="none"/><g fill="#e0e1e2"><path d="m1434.1 876.4h-103.9c18.17 0 32.9 14.73 32.9 32.9s-14.73 32.9-32.9 32.9h-260.9l-3.1 65.9h264c18.17 0 32.9-14.73 32.9-32.9.03-8.743-3.43-17.137-9.6-23.328-6.17-6.192-14.56-9.672-23.3-9.672h103.9c11.76.009 22.63-6.26 28.51-16.443 5.88-10.182 5.88-22.73 0-32.913s-16.75-16.452-28.51-16.444z"/><path d="m1641.4 744.8h-115.5c18.16.013 32.88 14.74 32.88 32.901s-14.72 32.886-32.88 32.899h115.5c18.17 0 32.9-14.73 32.9-32.9s-14.73-32.9-32.9-32.9z"/><path d="m1525.9 810.6h-91.8c11.76-.009 22.63 6.26 28.51 16.443 5.88 10.182 5.88 22.73 0 32.913s-16.75 16.452-28.51 16.444h91.8c18.16-.013 32.88-14.74 32.88-32.901s-14.72-32.886-32.88-32.899z"/><path d="m491.2 777.7c0-18.17 14.73-32.9 32.9-32.9h-115.5c-18.17 0-32.9 14.73-32.9 32.9s14.73 32.9 32.9 32.9h115.5c-18.17 0-32.9-14.73-32.9-32.9z"/><path d="m791.9 942.2h-72.1c-18.17 0-32.9-14.73-32.9-32.9s14.73-32.9 32.9-32.9h-103.9c-11.76-.009-22.63 6.26-28.512 16.443-5.882 10.182-5.883 22.73-.001 32.913s16.752 16.452 28.512 16.444h103.9c-8.743 0-17.127 3.48-23.299 9.671-6.173 6.192-9.628 14.586-9.601 23.329 0 18.17 14.73 32.9 32.9 32.9h264l-3.1-65.9z"/><path d="m583 843.5c0-18.17 14.73-32.9 32.9-32.9h-91.8c-18.161.013-32.876 14.74-32.876 32.901s14.716 32.886 32.877 32.899h91.8c-18.17 0-32.9-14.73-32.9-32.9z"/><path d="m976.1 844.3c-15-5.594-28.934-13.711-41.2-24l8.9 187.8h40z"/><path d="m1115.1 820.3c-12.27 10.289-26.2 18.406-41.2 24l-7.7 163.8h40z"/></g><path d="m1040.3 608.2v-30.6h-30.6v30.6h-30.5v30.5h30.5v30.5h30.6v-30.5h30.5v-30.5zm-310.5 217.4h-205.7c-8.284 0-15-6.716-15-15s6.716-15 15-15h205.7c8.284 0 15 6.716 15 15s-6.716 15-15 15zm82 66h-190.9c-8.284 0-15-6.716-15-15s6.716-15 15-15h190.9c8.284 0 15 6.716 15 15s-6.716 15-15 15zm57.2 65.6h-149.2c-8.284 0-15-6.716-15-15s6.716-15 15-15h149.2c8.284 0 15 6.716 15 15s-6.716 15-15 15zm656.9-131.6h-205.7c-8.28 0-15-6.716-15-15s6.72-15 15-15h205.7c8.28 0 15 6.716 15 15s-6.72 15-15 15zm-96.8 66h-190.9c-8.28 0-15-6.716-15-15s6.72-15 15-15h190.9c8.28 0 15 6.716 15 15s-6.72 15-15 15zm-98.9 65.6h-149.2c-8.28 0-15-6.716-15-15s6.72-15 15-15h149.2c8.28 0 15 6.716 15 15s-6.72 15-15 15zm0 65.9h-264c-4.13 0-8.07-1.7-10.9-4.7-2.82-2.94-4.31-6.92-4.1-11l7.7-163.8c.32-6.014 4.17-11.269 9.8-13.4 39.41-14.556 68.89-47.905 78.5-88.8 1.58-6.789 7.63-11.596 14.6-11.6h479.6c26.44.014 47.87 21.454 47.87 47.898.01 26.444-21.42 47.886-47.87 47.902h-71.1c2.34 5.676 3.53 11.761 3.5 17.9-.05 26.431-21.46 47.845-47.9 47.9h-47.4c2.29 5.694 3.47 11.766 3.5 17.9 0 26.455-21.44 47.9-47.9 47.9h-59.5c2.34 5.711 3.53 11.828 3.5 18-.05 26.43-21.46 47.84-47.9 47.9zm-248.3-30h248.3c9.39-.702 16.66-8.529 16.66-17.95s-7.27-17.248-16.66-17.95c-8.28 0-15-6.716-15-15s6.72-15 15-15h103.9c6.4.005 12.31-3.406 15.51-8.946s3.2-12.368 0-17.908-9.11-8.951-15.51-8.946c-8.28 0-15-6.716-15-15s6.72-15 15-15h91.8c9.88-.008 17.89-8.02 17.89-17.9 0-9.881-8.01-17.893-17.89-17.9-8.28 0-15-6.716-15-15s6.72-15 15-15h115.5c9.88-.008 17.89-8.02 17.89-17.9 0-9.881-8.01-17.893-17.89-17.9h-468.2c-13.43 42.239-44.29 76.709-84.8 94.7zm-98.1 30h-264c-26.432-.06-47.845-21.47-47.9-47.9-.029-6.171 1.16-12.288 3.5-18h-59.5c-26.455 0-47.9-21.445-47.9-47.9.031-6.135 1.219-12.207 3.5-17.901h-47.4c-26.431-.055-47.845-21.468-47.9-47.9-.029-6.139 1.161-12.223 3.5-17.9h-71.1c-26.444-.014-47.873-21.454-47.874-47.898s21.427-47.886 47.87-47.902h479.6c6.971.005 13.02 4.811 14.6 11.6 9.612 40.896 39.093 74.245 78.5 88.8 5.633 2.131 9.477 7.387 9.8 13.4l7.7 163.801c.209 4.07-1.275 8.05-4.1 11-2.832 3-6.775 4.7-10.9 4.7zm-264-65.9c-9.395.702-16.659 8.529-16.659 17.95s7.264 17.248 16.659 17.95h248.3l-6.5-138.6c-40.506-17.991-71.373-52.461-84.8-94.7h-468.2c-9.881.008-17.886 8.02-17.886 17.9 0 9.881 8.006 17.893 17.886 17.9h115.5c8.285 0 15 6.716 15 15s-6.715 15-15 15c-9.88.008-17.886 8.02-17.886 17.9 0 9.881 8.006 17.893 17.887 17.9h91.8c8.284 0 15 6.716 15 15s-6.716 15-15 15c-6.399-.005-12.313 3.406-15.514 8.946s-3.201 12.368 0 17.908 9.115 8.951 15.513 8.946h103.9c8.285 0 15 6.716 15 15s-6.715 15-15 15z" fill="#6a00f4"/><path d="m960.2 1492.1c-8.284 0-15-6.72-15-15v-17.9c.056-61.23 49.676-110.85 110.9-110.9h13.5c13.47 0 25.92-7.19 32.65-18.85 6.74-11.66 6.74-26.04 0-37.7-6.73-11.66-19.18-18.85-32.65-18.85h-108.599c-42.005-.03-76.039-34.1-76.038-76.1.001-42.01 34.036-76.07 76.041-76.1h93.696c45.86-.06 83-37.24 83-83.1v-29.5c0-8.284 6.72-15 15-15 8.29 0 15 6.716 15 15v29.5c-.05 62.41-50.6 112.99-113 113.1h-93.699c-16.481-.02-31.718 8.77-39.964 23.04s-8.246 31.85-.001 46.12 23.481 23.06 39.962 23.04h108.602c37.39 0 67.7 30.31 67.7 67.7s-30.31 67.7-67.7 67.7h-13.5c-44.66.05-80.847 36.24-80.902 80.9v17.9c0 8.28-6.716 15-15 15z" fill="#30016e"/><path d="m1092.4 1492.1c-8.28 0-15-6.72-15-15v-17.9c0-44.64-36.16-80.84-80.8-80.9h-13.6c-37.39 0-67.7-30.31-67.7-67.7s30.31-67.7 67.7-67.7h108.6c16.48.02 31.72-8.76 39.96-23.04 8.25-14.27 8.25-31.85.01-46.12-8.25-14.27-23.49-23.06-39.97-23.04h-93.597c-62.441-.05-113.045-50.66-113.1-113.1v-29.5c0-8.284 6.716-15 15-15s15 6.716 15 15v29.5c.055 45.87 37.227 83.04 83.099 83.1h93.598c27.2-.02 52.35 14.48 65.96 38.03 13.61 23.56 13.61 52.58 0 76.14-13.61 23.55-38.75 38.05-65.95 38.03h-108.605c-13.469 0-25.914 7.19-32.649 18.85-6.734 11.66-6.734 26.04 0 37.7 6.735 11.66 19.18 18.85 32.649 18.85h13.6c61.205.06 110.805 49.69 110.805 110.9v17.9c0 8.28-6.72 15-15 15z" fill="#30016e"/><path d="m1025 1575.9c-16.4-.03-29.901-12.92-30.7-29.3l-39.5-835.5c-26.757-21.391-42.265-53.843-42.1-88.1.2-60.8 49.9-111 110.7-111.9 48-.715 91.15 29.16 107.37 74.343 16.22 45.182 1.93 95.679-35.57 125.657l-39.5 835.5c-.8 16.38-14.3 29.27-30.7 29.3zm0-1034.8h-1.2c-44.5.6-81 37.4-81.1 82-.076 27.055 13.114 52.425 35.302 67.902 3.806 2.674 6.168 6.953 6.4 11.6l39.898 842.598c0 .25.14.48.35.61.22.12.49.12.7 0 .22-.13.35-.36.35-.61l39.9-842.599c.23-4.646 2.6-8.925 6.4-11.6 29.56-20.527 42.36-57.881 31.59-92.222s-42.6-57.703-78.59-57.678z" fill="#30016e" fill-rule="evenodd"/></g></svg>